<?xml version="1.0" encoding="UTF-8" standalone="no"?>
<svg
   xmlns:dc="http://purl.org/dc/elements/1.1/"
   xmlns:cc="http://creativecommons.org/ns#"
   xmlns:rdf="http://www.w3.org/1999/02/22-rdf-syntax-ns#"
   xmlns:svg="http://www.w3.org/2000/svg"
   xmlns="http://www.w3.org/2000/svg"
   xmlns:sodipodi="http://sodipodi.sourceforge.net/DTD/sodipodi-0.dtd"
   xmlns:inkscape="http://www.inkscape.org/namespaces/inkscape"
   inkscape:version="1.0 (4035a4fb49, 2020-05-01)"
   sodipodi:docname="Geoptim Logo-06.svg"
   xml:space="preserve"
   style="enable-background:new 0 0 2000 2000;"
   viewBox="0 0 2000 2000"
   y="0px"
   x="0px"
   id="Layer_1"
   version="1.1"><metadata
   id="metadata19"><rdf:RDF><cc:Work
       rdf:about=""><dc:format>image/svg+xml</dc:format><dc:type
         rdf:resource="http://purl.org/dc/dcmitype/StillImage" /></cc:Work></rdf:RDF></metadata><defs
   id="defs17" /><sodipodi:namedview
   inkscape:current-layer="g12"
   inkscape:window-maximized="1"
   inkscape:window-y="-8"
   inkscape:window-x="1912"
   inkscape:cy="1000"
   inkscape:cx="1000"
   inkscape:zoom="0.425"
   showgrid="false"
   id="namedview15"
   inkscape:window-height="1017"
   inkscape:window-width="1920"
   inkscape:pageshadow="2"
   inkscape:pageopacity="0"
   guidetolerance="10"
   gridtolerance="10"
   objecttolerance="10"
   borderopacity="1"
   bordercolor="#666666"
   pagecolor="#ffffff" />
<style
   id="style2"
   type="text/css">
	.st0{fill:#FFFFFF;}
	.st1{fill:#ED2939;}
	.st2{fill:#002395;}
</style>
<g
   id="g12">
	<g
   id="g10">
		<path
   id="path4"
   d="M671.85,924.42c-98.75,0.02-178.77,80.04-178.78,178.78c0.01,98.75,80.04,178.77,178.78,178.78    c98.75-0.01,178.77-80.03,178.78-178.78C850.62,1004.46,770.6,924.43,671.85,924.42z M765,1196.35    c-23.91,23.87-56.7,38.57-93.15,38.58c-36.45-0.01-69.24-14.71-93.15-38.58c-23.88-23.91-38.57-56.7-38.58-93.15    c0.01-36.45,14.71-69.24,38.59-93.15c23.91-23.88,56.7-38.57,93.15-38.58c36.45,0.01,69.24,14.71,93.15,38.58    c23.88,23.91,38.57,56.7,38.58,93.15C803.58,1139.66,788.88,1172.44,765,1196.35z"
   class="st1" />
		<path
   style="fill:#ffffff"
   id="path6"
   d="M1538.58,888.02c-9.93-11.08-20.69-21.36-31.84-31.22c0.9-3.54,1.53-7.18,1.53-11    c-0.01-24.66-19.99-44.63-44.64-44.63c-24.65,0.01-44.63,19.98-44.64,44.63c0.01,24.66,19.99,44.63,44.64,44.64    c3.12,0,6.17-0.33,9.11-0.94c10.85,9.37,21.24,19.25,30.8,29.92c53.08,59.26,85.3,137.33,85.31,223.15    c-0.01,92.44-37.4,175.91-97.97,236.52c-60.6,60.57-144.08,97.96-236.52,97.97H680.6c-19.59-17.12-80.76-71.98-139.84-139.34    c-33.74-38.44-66.78-80.99-90.89-122.25c-12.06-20.61-21.88-40.89-28.55-59.92c-6.69-19.04-10.18-36.78-10.17-52.33    c0.01-72.06,29.14-137.09,76.36-184.34c47.25-47.21,112.28-76.35,184.34-76.36c72.06,0.01,137.09,29.14,184.34,76.36    c47.21,47.25,76.35,112.28,76.36,184.34c0.13,26.94-10.75,60.57-29.58,95.88c-16.46,31.07-38.74,63.38-63.19,94.43    c-2.07-0.3-4.14-0.63-6.29-0.64c-24.65,0.01-44.63,19.98-44.64,44.64c0.01,24.66,19.99,44.63,44.64,44.63    c24.65-0.01,44.63-19.98,44.64-44.63c0-4.81-0.96-9.34-2.36-13.68c26.04-32.96,50.2-67.72,68.77-102.7    c20.76-39.32,34.94-78.96,35.07-117.93c-0.02-169.97-137.77-307.73-307.75-307.75c-169.97,0.02-307.73,137.77-307.75,307.75    c0.02,23.19,5.18,46.65,13.6,70.11c14.81,41.03,39.72,82.37,68.57,122.04c43.3,59.42,95.68,114.9,137.38,155.81    c41.69,40.88,72.68,67.1,73,67.37c0.31,0.26,0.66,0.43,0.98,0.68c0.67,0.51,1.35,0.99,2.07,1.42c0.63,0.38,1.27,0.73,1.93,1.05    c0.7,0.34,1.41,0.64,2.15,0.91c0.73,0.27,1.46,0.49,2.21,0.69c0.72,0.18,1.44,0.33,2.18,0.45c0.82,0.13,1.64,0.21,2.47,0.25    c0.41,0.02,0.79,0.12,1.21,0.12l582.51,0c210.73-0.02,381.52-170.81,381.54-381.54C1635.91,1044.84,1599.06,955.48,1538.58,888.02    z M1463.62,823.03c12.57,0.02,22.75,10.2,22.78,22.77c-0.02,12.58-10.21,22.75-22.78,22.78c-12.57-0.02-22.75-10.2-22.78-22.78    C1440.87,833.23,1451.05,823.05,1463.62,823.03z M833.49,1360.28c-12.57-0.02-22.75-10.2-22.78-22.77    c0.02-12.58,10.21-22.75,22.78-22.78c12.57,0.02,22.75,10.2,22.78,22.78C856.24,1350.08,846.06,1360.26,833.49,1360.28z"
   class="st2" />
		<path
   style="fill:#ffffff"
   id="path8"
   d="M767.35,772.04c3.83,0,7.73-0.5,11.58-1.53c19.94-5.38,33.09-23.36,33.09-43.1c0-3.83-0.5-7.73-1.53-11.58    l-10.56,2.83l10.56-2.83c-2.07-7.68-6.04-14.32-11.23-19.62c9.93-33.01,26.74-63.63,49.3-89.63    c30.69-35.36,71.76-62.19,120.44-75.26c21.12-5.66,42.28-8.36,63.1-8.36c53.56-0.01,104.94,17.88,146.55,49.35    c41.61,31.49,73.35,76.38,87.93,130.71c5.67,21.12,8.36,42.29,8.36,63.11c0.01,58.7-21.56,114.76-58.86,158.22    c-5.02-1.92-10.36-3.05-15.89-3.05c-3.84,0-7.73,0.5-11.58,1.53c-19.93,5.37-33.09,23.36-33.08,43.09c0,3.84,0.5,7.73,1.53,11.59    c5.36,19.93,23.36,33.09,43.09,33.08c3.83,0,7.73-0.5,11.58-1.53c19.94-5.38,33.09-23.36,33.08-43.1c0-0.98-0.13-1.98-0.19-2.97    c48.89-52.88,77.35-122.96,77.36-196.87c0-24.88-3.23-50.17-9.97-75.29c-17.34-64.69-55.38-118.54-104.99-156.04    c-49.61-37.52-110.87-58.87-174.93-58.88c-24.88,0-50.17,3.23-75.29,9.97c-57.94,15.53-107.22,47.69-143.8,89.88    c-27.48,31.69-47.86,69.04-59.61,109.41c-18.54,6.14-30.68,23.32-30.68,42.22c0,3.83,0.5,7.73,1.53,11.58    C729.63,758.89,747.61,772.04,767.35,772.04z M1178.17,971.84c-0.54-2-0.79-3.98-0.79-5.92c0-10.02,6.71-19.27,16.88-21.97    c2-0.54,3.97-0.79,5.92-0.79c10.02,0.01,19.27,6.71,21.98,16.89c0.53,1.99,0.78,3.97,0.78,5.92    c-0.01,10.02-6.71,19.27-16.88,21.98c-1.99,0.53-3.97,0.78-5.92,0.78C1190.12,988.72,1180.87,982.01,1178.17,971.84z     M761.47,705.4c2-0.54,3.98-0.79,5.93-0.79c10.02,0.01,19.26,6.71,21.97,16.89c0.53,1.99,0.78,3.97,0.79,5.91    c-0.01,10.02-6.71,19.27-16.89,21.98c-1.99,0.53-3.97,0.78-5.92,0.78c-10.02-0.01-19.27-6.71-21.98-16.88    c-0.53-1.99-0.78-3.97-0.79-5.92C744.59,717.35,751.29,708.1,761.47,705.4z"
   class="st2" />
	</g>
</g>
</svg>
