<?xml version="1.0" encoding="UTF-8" standalone="no"?>
<!-- Created with Inkscape (http://www.inkscape.org/) -->

<svg
   xmlns:dc="http://purl.org/dc/elements/1.1/"
   xmlns:cc="http://creativecommons.org/ns#"
   xmlns:rdf="http://www.w3.org/1999/02/22-rdf-syntax-ns#"
   xmlns:svg="http://www.w3.org/2000/svg"
   xmlns="http://www.w3.org/2000/svg"
   version="1.1"
   width="552.92523"
   height="337.5636"
   id="svg3126">
  <defs
     id="defs3128" />
  <g
     transform="translate(-100.68023,-346.4375)"
     id="layer1">
    <path
       d="m 273.05439,649.31752 c 0,-5.72008 0,-18.05394 1.7546,-29.51012 l -0.42666,0 c -13.68432,19.38216 -36.57675,34.35881 -70.06702,34.35881 -48.43681,0 -64.75369,-31.70266 -64.75369,-69.17675 l 0,-94.71117 c -10.55883,-1.7546 -25.09943,-3.51446 -37.88139,-4.3911 l 0,-52.4303 c 38.75908,-3.97177 79.29241,-5.28951 118.07428,-3.97177 l 0,138.77911 c 0,11.01927 3.06213,18.05317 12.33177,18.05317 17.62334,0 34.34832,-25.5373 34.34832,-49.7752 l 0,-106.6079 80.19287,0 0,158.58795 c 10.56198,1.76692 25.53862,3.52152 38.33349,4.40262 l 0,57.14489 c -36.57862,3.95029 -75.78503,0.58723 -111.90657,-0.75224"
       id="path23"
       style="fill:#f46917;fill-opacity:1;fill-rule:nonzero;stroke:none" />
    <path
       d="m 522.27566,438.7566 c 0,17.16316 -11.90431,28.18218 -37.45209,28.18218 -7.04567,0 -12.77387,0 -17.63252,-0.4327 l 0,-50.22179 c 7.0352,-0.44788 14.10185,-0.89053 23.35814,-0.89053 19.37428,0 31.72647,7.92389 31.72647,23.36284 z m 91.62784,114.96919 c 0,-28.62929 -17.19249,-55.50473 -42.74027,-64.31603 l 0,-1.33815 c 22.90499,-11.88388 38.31119,-35.67469 38.31119,-62.10908 0,-51.97325 -41.40448,-76.65145 -105.70348,-76.65145 -36.99897,0 -88.57122,0.87744 -118.49832,2.65588 l 0,296.92206 c 50.21551,0 84.56383,0.87666 102.63638,0.87666 85.01957,0 125.9945,-42.29291 125.9945,-96.03989 z m -88.56598,0.87978 c 0,18.49817 -14.96617,28.19029 -36.99897,28.19029 -7.04565,0 -15.86717,-0.44317 -21.1475,-0.87796 l 0,-54.18777 c 4.85865,-0.43898 18.08303,-0.43898 21.1475,-0.43898 25.56352,0 36.99897,11.8857 36.99897,27.31442 z"
       id="path27"
       style="fill:#ffffff;stroke:#f46917;stroke-width:3.74704242;stroke-linecap:butt;stroke-linejoin:miter;stroke-miterlimit:4;stroke-opacity:1;stroke-dasharray:none" />
    <path
       d="m 104.84476,683.00109 547.76072,0 0,-34.26975 -547.76072,0 0,34.26975 z"
       id="path29"
       style="fill:#f46917;fill-opacity:1;fill-rule:evenodd;stroke:none" />
    <path
       d="m 328.27398,650.63393 -4.875,3.03125 1.21875,2.03125 5.15625,-2.625 -1.5,-2.4375 z m -53.21875,6 c -4.50899,0 -7.15625,2.29881 -7.15625,5.625 0,6.18176 7.875,4.53075 7.875,8.125 0,1.70454 -1.40819,2.46875 -3.25,2.46875 -1.35572,0 -2.87565,-0.33452 -3.9375,-0.6875 l -0.1875,3.375 c 1.15116,0.29371 2.47515,0.4375 3.8125,0.4375 4.60198,0 7.40625,-2.586 7.40625,-6.125 0,-5.85638 -7.875,-4.60575 -7.875,-7.96875 0,-1.34851 1.05607,-2.28125 3.125,-2.28125 1.15402,0 2.30793,0.21149 3.375,0.5 l 0.1875,-3.15625 c -1.11316,-0.19856 -2.3234,-0.3125 -3.375,-0.3125 z m 167.8125,0 c -5.01317,0 -9.15625,3.70143 -9.15625,9.875 0,5.82979 2.80304,9.46875 8.53125,9.46875 5.07079,0 9.15625,-3.73324 9.15625,-9.9375 0,-6.41504 -3.51284,-9.40625 -8.53125,-9.40625 z m 72.65625,0 c -6.47731,0 -10.5,4.21075 -10.5,10.09375 0,5.72031 3.53624,9.21875 9.46875,9.21875 2.24466,0 4.55444,-0.3971 6.40625,-1.15625 l 0,-8.9375 -3.59375,0 0,6.53125 c -0.72029,0.20369 -1.49758,0.3125 -2.375,0.3125 -3.81621,0 -6,-2.32843 -6,-6.3125 0,-4.1938 2.68716,-6.5 6.375,-6.5 1.73918,0 3.45747,0.35124 4.96875,0.9375 l 0.53125,-3.375 c -1.58724,-0.46963 -3.42685,-0.8125 -5.28125,-0.8125 z m 22.6875,0 c -5.0315,0 -9.15625,3.70143 -9.15625,9.875 0,5.82979 2.79258,9.46875 8.53125,9.46875 5.07341,0 9.15625,-3.73324 9.15625,-9.9375 0,-6.41504 -3.5338,-9.40625 -8.53125,-9.40625 z m 26.40625,0 c -6.50088,0 -10.53125,4.21075 -10.53125,10.09375 0,5.72031 3.531,9.21875 9.46875,9.21875 2.25512,0 4.56478,-0.3971 6.4375,-1.15625 l 0,-8.9375 -3.625,0 0,6.53125 c -0.71245,0.20369 -1.47659,0.3125 -2.375,0.3125 -3.80833,0 -5.96875,-2.32843 -5.96875,-6.3125 0,-4.1938 2.65591,-6.5 6.34375,-6.5 1.75487,0 3.46797,0.35124 4.96875,0.9375 l 0.5625,-3.375 c -1.62127,-0.46963 -3.44516,-0.8125 -5.28125,-0.8125 z m -312.59375,0.15625 c -2.15663,0 -3.90196,0.0596 -5.375,0.125 l 0,18.75 3.59375,0 0,-7.75 0.125,0 5.25,7.75 4.46875,0 -4.53125,-6.3125 c -0.46856,-0.62411 -0.97615,-1.34472 -1.5,-2.03125 2.82902,-0.43686 4.78125,-2.44765 4.78125,-5.25 0,-3.81422 -2.66365,-5.28125 -6.8125,-5.28125 z m 108.90625,0 c -2.29466,0 -4.55582,0.0938 -6.03125,0.15625 l 0,18.71875 c 1.593,0.0501 3.27976,0.125 5.21875,0.125 6.11064,0 10.34375,-3.37188 10.34375,-9.8125 0,-6.59815 -3.6972,-9.1875 -9.53125,-9.1875 z m 58.25,0 c -2.30229,0 -4.73311,0.0672 -6.3125,0.15625 l 0,18.71875 c 2.3442,0 4.31648,0.0625 5.4375,0.0625 5.68107,0 7.5625,-3.12224 7.5625,-5.84375 0,-1.89075 -1.12004,-3.72197 -3.34375,-4.1875 l 0,-0.0625 c 1.79416,-0.69164 2.96875,-2.34588 2.96875,-4.1875 0,-3.02026 -2.23177,-4.65625 -6.3125,-4.65625 z m 71,0 c -2.16084,0 -3.90301,0.0596 -5.375,0.125 l 0,18.75 3.625,0 0,-7.75 0.125,0 5.21875,7.75 4.5,0 -4.5,-6.3125 c -0.48715,-0.62411 -1.01247,-1.34472 -1.5625,-2.03125 2.86018,-0.43686 4.78125,-2.44765 4.78125,-5.25 0,-3.81422 -2.65843,-5.28125 -6.8125,-5.28125 z m -348.75,0.125 0,12.28125 c 0,3.57277 1.3332,6.78125 7.25,6.78125 4.96732,0 7.78125,-2.50369 7.78125,-7.59375 l 0,-11.46875 -3.5625,0 0,11.71875 c 0,3.20036 -1.17562,4.34375 -3.96875,4.34375 -3.1001,0 -3.875,-1.66885 -3.875,-4.03125 l 0,-12.03125 -3.625,0 z m 24.9375,0 0,18.75 3.46875,0 0,-6.6875 c 0,-2.25497 -0.0387,-5.20211 -0.15625,-6.8125 0.54427,1.24924 1.18961,2.62446 2,4.03125 l 5.53125,9.46875 4.65625,0 0,-18.75 -3.5,0 0,5.84375 c 0,2.31226 0.0492,5.64972 0.1875,7.53125 -0.70402,-1.415 -1.44732,-2.97388 -2.28125,-4.40625 l -5.21875,-8.96875 -4.6875,0 z m 25.5625,0 0,18.75 3.59375,0 0,-18.75 -3.59375,0 z m 10.96875,0 6.5625,18.75 4.15625,0 6.53125,-18.75 -3.6875,0 -3.6875,10.78125 c -0.52464,1.57666 -0.84869,2.56587 -1.125,3.84375 l -0.0312,0 c -0.33972,-1.34642 -0.76906,-2.60548 -1.125,-3.65625 l -3.625,-10.96875 -3.96875,0 z m 24.6875,0 0,18.75 10.15625,0 0,-3.09375 -6.5625,0 0,-5.0625 6.25,0 0,-2.9375 -6.25,0 0,-4.59375 6.5625,0 0,-3.0625 -10.15625,0 z m 60.5,0 0,18.75 3.59375,0 0,-18.75 -3.59375,0 z m 11.6875,0 0,3.09375 4.875,0 0,15.65625 3.59375,0 0,-15.65625 4.875,0 0,-3.09375 -13.34375,0 z m 21.0625,0 0,18.75 10.21875,0 0,-3.09375 -6.59375,0 0,-5.0625 6.25,0 0,-2.9375 -6.25,0 0,-4.59375 6.59375,0 0,-3.0625 -10.21875,0 z m 57.96875,0 0,18.75 10.21875,0 0,-3.09375 -6.625,0 0,-5.0625 6.28125,0 0,-2.9375 -6.28125,0 0,-4.59375 6.625,0 0,-3.0625 -10.21875,0 z m 80.8125,0 0,12.28125 c 0,3.57277 1.34648,6.78125 7.21875,6.78125 4.97912,0 7.8125,-2.50369 7.8125,-7.59375 l 0,-11.46875 -3.59375,0 0,11.71875 c 0,3.20036 -1.16638,4.34375 -3.9375,4.34375 -3.10638,0 -3.875,-1.66885 -3.875,-4.03125 l 0,-12.03125 -3.625,0 z m 119.53125,0 0,18.75 3.5,0 0,-6.6875 c 0,-2.25497 -0.0462,-5.20211 -0.15625,-6.8125 0.54742,1.24924 1.21408,2.62446 2.03125,4.03125 l 5.46875,9.46875 4.65625,0 0,-18.75 -3.46875,0 0,5.84375 c 0,2.31226 0.0408,5.64972 0.1875,7.53125 -0.69147,-1.415 -1.4534,-2.97388 -2.3125,-4.40625 l -5.21875,-8.96875 -4.6875,0 z m 26.34375,0 0,18.75 10.21875,0 0,-3.09375 -6.59375,0 0,-5.0625 6.25,0 0,-2.9375 -6.25,0 0,-4.59375 6.59375,0 0,-3.0625 -10.21875,0 z m -186.90625,2.8125 c 2.28393,0 3.125,0.93025 3.125,2.3125 0,1.66053 -1.28008,2.65625 -3.75,2.65625 -0.59456,0 -1.0392,-0.003 -1.46875,-0.0312 l 0,-4.875 c 0.6417,-0.0287 1.34466,-0.0625 2.09375,-0.0625 z m -166.9375,0.0312 c 2.26325,0 3.40625,0.89395 3.40625,2.6875 0,1.75466 -1.33417,2.875 -3.5,2.875 -0.55762,0 -1.06183,-0.0338 -1.3125,-0.0625 l 0,-5.4375 c 0.36826,-0.0522 0.88947,-0.0625 1.40625,-0.0625 z m 238.1875,0 c 2.28395,0 3.375,0.89395 3.375,2.6875 0,1.75466 -1.33392,2.875 -3.5,2.875 -0.56575,0 -1.04814,-0.0338 -1.28125,-0.0625 l 0,-5.4375 c 0.34836,-0.0522 0.87979,-0.0625 1.40625,-0.0625 z m -129.15625,0.0625 c 4.2832,0 5.875,2.39817 5.875,6.4375 0,4.4496 -2.57877,6.4375 -6.09375,6.4375 -0.6988,0 -1.45165,-0.0693 -1.9375,-0.15625 l 0,-12.625 c 0.58302,-0.0419 1.33775,-0.0937 2.15625,-0.0937 z m 81.875,0.0625 c 3.21113,0 4.96875,2.2652 4.96875,6.4375 0,4.49157 -2.59536,6.375 -5.03125,6.375 -3.3578,0 -4.90625,-2.58662 -4.90625,-6.5625 0,-4.22246 2.38357,-6.25 4.96875,-6.25 z m 95.34375,0 c 3.21901,0 5,2.2652 5,6.4375 0,4.49157 -2.62399,6.375 -5.0625,6.375 -3.36828,0 -4.9375,-2.58662 -4.9375,-6.5625 0,-4.22246 2.40438,-6.25 5,-6.25 z m -119.84375,7.5 c 2.35991,0 3.9375,0.76544 3.9375,2.59375 0,1.69737 -1.18164,2.8125 -3.5625,2.8125 -0.8172,0 -1.50795,-0.0676 -1.9375,-0.125 l 0,-5.25 c 0.37192,-0.0287 1.28748,-0.0312 1.5625,-0.0312 z"
       id="path31"
       style="fill:#ffffff;fill-opacity:1;fill-rule:nonzero;stroke:none" />
  </g>
</svg>
